<?xml version="1.0" standalone="no"?><!-- Created with ZXing.Net (http://zxingnet.codeplex.com/) --><!DOCTYPE svg PUBLIC "-//W3C//DTD SVG 1.1//EN" "http://www.w3.org/Graphics/SVG/1.1/DTD/svg11.dtd"><svg xmlns="http://www.w3.org/2000/svg" version="1.2" baseProfile="tiny" shape-rendering="crispEdges" viewBox="0 0 320 320" viewport-fill="rgb(255,255,255)" viewport-fill-opacity="1" fill="rgb(0,0,0)" fill-opacity="1" style="background-color:rgb(255,255,255);background-color:rgba(1);"><rect x="10" y="10" width="12" height="84"/><rect x="10" y="106" width="12" height="36"/><rect x="10" y="154" width="12" height="24"/><rect x="10" y="202" width="108" height="12"/><rect x="10" y="226" width="12" height="84"/><rect x="22" y="10" width="72" height="12"/><rect x="22" y="82" width="72" height="12"/><rect x="22" y="106" width="12" height="12"/><rect x="22" y="142" width="60" height="12"/><rect x="22" y="166" width="24" height="12"/><rect x="22" y="226" width="72" height="12"/><rect x="22" y="298" width="72" height="12"/><rect x="34" y="34" width="36" height="36"/><rect x="34" y="130" width="12" height="60"/><rect x="34" y="250" width="36" height="36"/><rect x="58" y="106" width="36" height="12"/><rect x="58" y="130" width="12" height="36"/><rect x="58" y="190" width="24" height="24"/><rect x="70" y="130" width="12" height="24"/><rect x="70" y="178" width="12" height="36"/><rect x="82" y="22" width="12" height="72"/><rect x="82" y="130" width="12" height="12"/><rect x="82" y="154" width="12" height="12"/><rect x="82" y="178" width="48" height="12"/><rect x="82" y="238" width="12" height="72"/><rect x="94" y="166" width="12" height="48"/><rect x="106" y="10" width="12" height="48"/><rect x="106" y="70" width="12" height="24"/><rect x="106" y="118" width="12" height="24"/><rect x="106" y="166" width="24" height="24"/><rect x="106" y="214" width="12" height="12"/><rect x="106" y="238" width="24" height="24"/><rect x="106" y="286" width="12" height="24"/><rect x="118" y="10" width="24" height="24"/><rect x="118" y="46" width="12" height="12"/><rect x="118" y="94" width="12" height="12"/><rect x="118" y="118" width="24" height="12"/><rect x="118" y="190" width="12" height="12"/><rect x="118" y="226" width="12" height="36"/><rect x="118" y="286" width="12" height="12"/><rect x="130" y="34" width="24" height="12"/><rect x="130" y="82" width="12" height="12"/><rect x="130" y="142" width="12" height="24"/><rect x="130" y="202" width="24" height="12"/><rect x="130" y="250" width="12" height="36"/><rect x="142" y="46" width="12" height="12"/><rect x="142" y="70" width="36" height="12"/><rect x="142" y="106" width="12" height="12"/><rect x="142" y="130" width="12" height="24"/><rect x="142" y="226" width="12" height="24"/><rect x="142" y="298" width="60" height="12"/><rect x="154" y="10" width="60" height="12"/><rect x="154" y="82" width="12" height="24"/><rect x="154" y="118" width="12" height="24"/><rect x="154" y="154" width="12" height="12"/><rect x="154" y="190" width="12" height="12"/><rect x="154" y="214" width="12" height="24"/><rect x="154" y="250" width="12" height="12"/><rect x="154" y="286" width="12" height="24"/><rect x="166" y="22" width="12" height="12"/><rect x="166" y="46" width="12" height="36"/><rect x="166" y="166" width="12" height="24"/><rect x="166" y="214" width="48" height="12"/><rect x="166" y="262" width="12" height="24"/><rect x="178" y="46" width="12" height="24"/><rect x="178" y="82" width="12" height="72"/><rect x="178" y="226" width="12" height="24"/><rect x="178" y="274" width="12" height="12"/><rect x="190" y="58" width="24" height="12"/><rect x="190" y="118" width="12" height="24"/><rect x="190" y="154" width="12" height="36"/><rect x="190" y="262" width="12" height="12"/><rect x="190" y="286" width="12" height="24"/><rect x="202" y="22" width="12" height="12"/><rect x="202" y="46" width="12" height="60"/><rect x="202" y="118" width="24" height="12"/><rect x="202" y="190" width="12" height="72"/><rect x="214" y="130" width="12" height="36"/><rect x="214" y="178" width="12" height="12"/><rect x="214" y="202" width="72" height="12"/><rect x="214" y="250" width="96" height="12"/><rect x="214" y="274" width="24" height="12"/><rect x="226" y="10" width="12" height="84"/><rect x="226" y="154" width="24" height="12"/><rect x="226" y="226" width="12" height="12"/><rect x="226" y="262" width="12" height="36"/><rect x="238" y="10" width="72" height="12"/><rect x="238" y="82" width="72" height="12"/><rect x="238" y="106" width="12" height="12"/><rect x="238" y="130" width="12" height="36"/><rect x="238" y="178" width="24" height="36"/><rect x="238" y="262" width="12" height="12"/><rect x="238" y="286" width="60" height="12"/><rect x="250" y="34" width="36" height="36"/><rect x="250" y="118" width="24" height="12"/><rect x="250" y="166" width="12" height="96"/><rect x="262" y="106" width="12" height="36"/><rect x="262" y="154" width="48" height="12"/><rect x="262" y="178" width="24" height="12"/><rect x="262" y="238" width="24" height="24"/><rect x="262" y="274" width="12" height="24"/><rect x="274" y="106" width="36" height="12"/><rect x="274" y="130" width="12" height="36"/><rect x="274" y="190" width="12" height="24"/><rect x="274" y="262" width="36" height="12"/><rect x="274" y="298" width="36" height="12"/><rect x="286" y="118" width="12" height="12"/><rect x="286" y="142" width="12" height="36"/><rect x="286" y="190" width="12" height="12"/><rect x="286" y="274" width="12" height="36"/><rect x="298" y="22" width="12" height="72"/><rect x="298" y="238" width="12" height="36"/></svg>